<svg width="279.125px" height="102.8px" xmlns="http://www.w3.org/2000/svg" viewBox="110.4375 23.6 279.125 102.8" style="background: rgb(255, 255, 255);" preserveAspectRatio="xMidYMid"><defs><filter id="editing-lego" x="-100%" y="-100%" width="300%" height="300%"><feFlood flood-color="#01080a" result="f1"></feFlood><feFlood flood-color="#e7e5e8" result="f2"></feFlood><feMorphology operator="dilate" radius="3" in="SourceAlpha"></feMorphology><feConvolveMatrix order="5,5" divisor="1" result="cm1" kernelMatrix="0 1 1 1 0  1 0 0 0 1  1 0 0 0 1  1 0 0 0 1  0 1 1 1 0"></feConvolveMatrix><feComposite operator="in" in="f1" in2="cm1" result="c1"></feComposite><feMorphology operator="dilate" radius="3"></feMorphology><feConvolveMatrix order="5,5" divisor="1" result="cm2" kernelMatrix="0 1 1 1 0  1 0 0 0 1  1 0 0 0 1  1 0 0 0 1  0 1 1 1 0"></feConvolveMatrix><feComposite operator="in" in="f2" in2="cm2" result="c2"></feComposite><feMerge><feMergeNode in="c2"></feMergeNode><feMergeNode in="c1"></feMergeNode><feMergeNode in="SourceGraphic"></feMergeNode></feMerge></filter></defs><g filter="url(#editing-lego)"><g transform="translate(154.76500511169434, 98.31500053405762)"><path d="M17.13-25.70L17.13-25.70L17.13-25.70Q17.13-23.47 16.55-21.34L16.55-21.34L16.55-21.34Q15.97-19.20 14.76-17.39L14.76-17.39L14.76-17.39Q13.56-15.58 11.72-14.19L11.72-14.19L11.72-14.19Q9.89-12.81 7.38-12.09L7.38-12.09L7.38-12.09Q7.43-8.95 7.52-5.89L7.52-5.89L7.52-5.89Q7.61-2.82 7.74 0.21L7.74 0.21L1.42 0.21L1.42 0.21Q1.84-5.67 2.03-11.54L2.03-11.54L2.03-11.54Q2.23-17.42 2.23-23.37L2.23-23.37L2.23-23.37Q2.23-26.81 2.17-30.24L2.17-30.24L2.17-30.24Q2.12-33.67 1.97-37.16L1.97-37.16L1.97-37.16Q3.34-37.58 4.75-37.71L4.75-37.71L4.75-37.71Q6.16-37.83 7.14-37.83L7.14-37.83L7.14-37.83Q7.84-37.83 8.86-37.68L8.86-37.68L8.86-37.68Q9.89-37.52 10.99-37.07L10.99-37.07L10.99-37.07Q12.09-36.62 13.19-35.80L13.19-35.80L13.19-35.80Q14.29-34.99 15.17-33.63L15.17-33.63L15.17-33.63Q16.04-32.27 16.59-30.33L16.59-30.33L16.59-30.33Q17.13-28.39 17.13-25.70ZM7.38-17.39L7.38-16.48L7.38-16.48Q8.23-16.80 8.86-17.31L8.86-17.31L8.86-17.31Q9.50-17.83 9.98-18.46L9.98-18.46L9.98-18.46Q10.46-19.10 10.78-19.82L10.78-19.82L10.78-19.82Q11.10-20.55 11.31-21.25L11.31-21.25L11.31-21.25Q11.80-22.88 11.88-24.79L11.88-24.79L11.88-24.79Q11.88-24.82 11.87-25.39L11.87-25.39L11.87-25.39Q11.85-25.96 11.74-26.82L11.74-26.82L11.74-26.82Q11.62-27.69 11.36-28.74L11.36-28.74L11.36-28.74Q11.10-29.79 10.65-30.74L10.65-30.74L10.65-30.74Q10.20-31.70 9.48-32.47L9.48-32.47L9.48-32.47Q8.77-33.23 7.74-33.54L7.74-33.54L7.74-33.54Q7.53-29.53 7.45-25.50L7.45-25.50L7.45-25.50Q7.38-21.48 7.38-17.39L7.38-17.39ZM34.60-15.94L34.60-15.94L34.60-15.94Q33.77-15.81 32.87-15.63L32.87-15.63L32.87-15.63Q32.09-15.48 31.11-15.22L31.11-15.22L31.11-15.22Q30.12-14.96 29.14-14.62L29.14-14.62L29.14-14.62Q29.40-15.92 29.49-16.89L29.49-16.89L29.49-16.89Q29.58-17.86 29.58-18.66L29.58-18.66L29.58-18.66Q29.58-20.06 29.33-20.85L29.33-20.85L29.33-20.85Q29.09-21.63 28.78-22.02L28.78-22.02L28.78-22.02Q28.47-22.41 28.17-22.49L28.17-22.49L28.17-22.49Q27.87-22.57 27.77-22.57L27.77-22.57L27.77-22.57Q26.94-22.57 26.42-21.88L26.42-21.88L26.42-21.88Q25.90-21.19 25.62-20.07L25.62-20.07L25.62-20.07Q25.34-18.94 25.23-17.49L25.23-17.49L25.23-17.49Q25.13-16.04 25.13-14.52L25.13-14.52L25.13-14.52Q25.13-13.43 25.15-12.34L25.15-12.34L25.15-12.34Q25.18-11.26 25.23-10.17L25.23-10.17L25.59 0L19.62 0.41L19.62 0.41Q19.62-5.82 19.50-10.83L19.50-10.83L19.50-10.83Q19.38-15.84 19.25-19.38L19.25-19.38L19.25-19.38Q19.10-23.52 18.92-26.76L18.92-26.76L24.02-27.10L24.27-24.17L24.27-24.17Q24.95-25.83 25.87-26.80L25.87-26.80L25.87-26.80Q26.78-27.77 27.70-28.25L27.70-28.25L27.70-28.25Q28.62-28.73 29.39-28.85L29.39-28.85L29.39-28.85Q30.15-28.98 30.54-28.98L30.54-28.98L30.54-28.98Q31.86-28.98 32.69-28.14L32.69-28.14L32.69-28.14Q33.51-27.30 33.98-25.98L33.98-25.98L33.98-25.98Q34.44-24.66 34.61-23.08L34.61-23.08L34.61-23.08Q34.78-21.51 34.78-20.03L34.78-20.03L34.78-20.03Q34.78-18.87 34.72-17.82L34.72-17.82L34.72-17.82Q34.65-16.77 34.60-15.94ZM51.84-14.83L51.84-14.83L51.84-14.83Q51.84-11.67 51.55-9.29L51.55-9.29L51.55-9.29Q51.27-6.91 50.74-5.16L50.74-5.16L50.74-5.16Q50.21-3.42 49.47-2.26L49.47-2.26L49.47-2.26Q48.73-1.11 47.84-0.41L47.84-0.41L47.84-0.41Q46.94 0.28 45.91 0.57L45.91 0.57L45.91 0.57Q44.87 0.85 43.79 0.85L43.79 0.85L43.79 0.85Q42.70 0.85 41.70 0.62L41.70 0.62L41.70 0.62Q40.71 0.39 39.85-0.23L39.85-0.23L39.85-0.23Q39.00-0.85 38.29-1.92L38.29-1.92L38.29-1.92Q37.58-2.98 37.08-4.63L37.08-4.63L37.08-4.63Q36.59-6.29 36.32-8.59L36.32-8.59L36.32-8.59Q36.05-10.90 36.05-14.00L36.05-14.00L36.05-14.00Q36.05-18.66 36.74-21.63L36.74-21.63L36.74-21.63Q37.42-24.61 38.53-26.33L38.53-26.33L38.53-26.33Q39.65-28.05 41.07-28.71L41.07-28.71L41.07-28.71Q42.49-29.37 43.99-29.37L43.99-29.37L43.99-29.37Q44.95-29.37 45.92-29.18L45.92-29.18L45.92-29.18Q46.89-28.98 47.76-28.42L47.76-28.42L47.76-28.42Q48.63-27.85 49.38-26.84L49.38-26.84L49.38-26.84Q50.13-25.83 50.67-24.21L50.67-24.21L50.67-24.21Q51.21-22.59 51.52-20.29L51.52-20.29L51.52-20.29Q51.84-17.99 51.84-14.83ZM46.27-14.62L46.27-14.62L46.27-14.62Q46.27-17.11 46.09-18.70L46.09-18.70L46.09-18.70Q45.91-20.29 45.60-21.22L45.60-21.22L45.60-21.22Q45.29-22.15 44.85-22.50L44.85-22.50L44.85-22.50Q44.41-22.85 43.89-22.85L43.89-22.85L43.89-22.85Q43.30-22.85 42.86-22.35L42.86-22.35L42.86-22.35Q42.42-21.84 42.12-20.73L42.12-20.73L42.12-20.73Q41.82-19.62 41.67-17.87L41.67-17.87L41.67-17.87Q41.51-16.12 41.51-13.61L41.51-13.61L41.51-13.61Q41.51-11.08 41.70-9.41L41.70-9.41L41.70-9.41Q41.90-7.74 42.25-6.74L42.25-6.74L42.25-6.74Q42.60-5.75 43.08-5.33L43.08-5.33L43.08-5.33Q43.55-4.92 44.10-4.92L44.10-4.92L44.10-4.92Q45.24-4.92 45.75-7.27L45.75-7.27L45.75-7.27Q46.27-9.63 46.27-14.62ZM54.60 8.33L54.60 8.33L54.60 8.33Q53.85 8.49 53.17 8.54L53.17 8.54L53.17 8.54Q52.48 8.59 51.89 8.59L51.89 8.59L51.89 8.59Q50.88 8.59 50.06 8.48L50.06 8.48L50.06 8.48Q49.25 8.36 48.68 8.20L48.68 8.20L48.68 8.20Q48.01 8.02 47.49 7.79L47.49 7.79L47.69 2.64L47.69 2.64Q48.26 2.77 48.94 2.87L48.94 2.87L48.94 2.87Q49.51 2.95 50.26 3.01L50.26 3.01L50.26 3.01Q51.01 3.08 51.84 3.08L51.84 3.08L51.84 3.08Q53.57 3.08 54.22 0.76L54.22 0.76L54.22 0.76Q54.86-1.55 54.86-6.26L54.86-6.26L54.86-6.26Q54.86-7.82 54.82-9.60L54.82-9.60L54.82-9.60Q54.79-11.39 54.71-13.24L54.71-13.24L54.71-13.24Q54.63-15.09 54.54-16.94L54.54-16.94L54.54-16.94Q54.45-18.79 54.37-20.50L54.37-20.50L54.37-20.50Q54.16-24.48 53.91-28.52L53.91-28.52L59.73-28.52L59.73-28.52Q59.83-23.94 59.94-19.80L59.94-19.80L59.94-19.80Q59.96-18.04 60.01-16.19L60.01-16.19L60.01-16.19Q60.06-14.34 60.09-12.63L60.09-12.63L60.09-12.63Q60.12-10.92 60.14-9.45L60.14-9.45L60.14-9.45Q60.17-7.97 60.17-6.94L60.17-6.94L60.17-6.94Q60.17-3.47 59.94-0.76L59.94-0.76L59.94-0.76Q59.70 1.94 59.09 3.86L59.09 3.86L59.09 3.86Q58.49 5.77 57.40 6.90L57.40 6.90L57.40 6.90Q56.31 8.02 54.60 8.33ZM60.74-34.29L60.74-34.29L60.74-34.29Q60.74-33.51 60.49-32.83L60.49-32.83L60.49-32.83Q60.25-32.14 59.73-31.64L59.73-31.64L59.73-31.64Q59.21-31.13 58.42-30.83L58.42-30.83L58.42-30.83Q57.63-30.54 56.55-30.54L56.55-30.54L56.55-30.54Q55.41-30.54 54.60-30.83L54.60-30.83L54.60-30.83Q53.80-31.13 53.31-31.64L53.31-31.64L53.31-31.64Q52.82-32.14 52.60-32.83L52.60-32.83L52.60-32.83Q52.38-33.51 52.38-34.29L52.38-34.29L52.38-34.29Q52.38-35.07 52.61-35.75L52.61-35.75L52.61-35.75Q52.84-36.44 53.35-36.94L53.35-36.94L53.35-36.94Q53.85-37.45 54.64-37.74L54.64-37.74L54.64-37.74Q55.43-38.04 56.55-38.04L56.55-38.04L56.55-38.04Q57.66-38.04 58.46-37.74L58.46-37.74L58.46-37.74Q59.26-37.45 59.77-36.94L59.77-36.94L59.77-36.94Q60.27-36.44 60.50-35.75L60.50-35.75L60.50-35.75Q60.74-35.07 60.74-34.29ZM77.27-5.56L77.97-0.70L77.97-0.70Q75.57 0.13 73.59 0.39L73.59 0.39L73.59 0.39Q71.61 0.65 70.34 0.65L70.34 0.65L70.34 0.65Q68.76 0.65 67.57 0.03L67.57 0.03L67.57 0.03Q66.38-0.60 65.51-1.63L65.51-1.63L65.51-1.63Q64.65-2.67 64.08-4.02L64.08-4.02L64.08-4.02Q63.51-5.38 63.17-6.88L63.17-6.88L63.17-6.88Q62.83-8.38 62.69-9.92L62.69-9.92L62.69-9.92Q62.55-11.46 62.55-12.84L62.55-12.84L62.55-12.84Q62.55-16.25 63.09-19.14L63.09-19.14L63.09-19.14Q63.64-22.02 64.67-24.12L64.67-24.12L64.67-24.12Q65.71-26.22 67.23-27.39L67.23-27.39L67.23-27.39Q68.76-28.57 70.70-28.57L70.70-28.57L70.70-28.57Q72.31-28.57 73.63-27.77L73.63-27.77L73.63-27.77Q74.95-26.97 75.88-25.31L75.88-25.31L75.88-25.31Q76.81-23.65 77.31-21.10L77.31-21.10L77.31-21.10Q77.82-18.56 77.82-15.06L77.82-15.06L77.82-15.06Q77.82-14.08 77.78-13.07L77.78-13.07L77.78-13.07Q77.74-12.06 77.64-10.97L77.64-10.97L68.48-9.76L68.48-9.76Q68.58-8.80 68.80-7.94L68.80-7.94L68.80-7.94Q69.02-7.09 69.39-6.43L69.39-6.43L69.39-6.43Q69.77-5.77 70.29-5.38L70.29-5.38L70.29-5.38Q70.80-4.99 71.56-4.99L71.56-4.99L71.56-4.99Q72.95-4.99 74.35-5.16L74.35-5.16L74.35-5.16Q75.75-5.33 77.27-5.56L77.27-5.56ZM68.32-14.96L68.32-14.16L72.62-14.96L72.62-15.94L72.62-15.94Q72.62-18.14 72.28-19.34L72.28-19.34L72.28-19.34Q71.94-20.55 71.56-21.12L71.56-21.12L71.56-21.12Q71.09-21.79 70.49-21.89L70.49-21.89L70.49-21.89Q69.74-21.82 69.30-21.19L69.30-21.19L69.30-21.19Q68.86-20.57 68.64-19.60L68.64-19.60L68.64-19.60Q68.42-18.63 68.37-17.42L68.37-17.42L68.37-17.42Q68.32-16.20 68.32-14.96L68.32-14.96ZM92.59-27.30L92.18-21.25L92.18-21.25Q91.82-21.71 91.30-21.97L91.30-21.97L91.30-21.97Q90.78-22.23 90.27-22.36L90.27-22.36L90.27-22.36Q89.75-22.49 89.31-22.53L89.31-22.53L89.31-22.53Q88.87-22.57 88.69-22.57L88.69-22.57L88.69-22.57Q87.91-22.57 87.30-21.89L87.30-21.89L87.30-21.89Q86.69-21.22 86.27-19.98L86.27-19.98L86.27-19.98Q85.84-18.74 85.62-16.96L85.62-16.96L85.62-16.96Q85.40-15.19 85.40-12.99L85.40-12.99L85.40-12.99Q85.40-10.87 85.70-9.12L85.70-9.12L85.70-9.12Q86.00-7.38 86.75-6.12L86.75-6.12L86.75-6.12Q87.50-4.87 88.76-4.11L88.76-4.11L88.76-4.11Q90.03-3.36 91.97-3.23L91.97-3.23L91.82 1.22L91.82 1.22Q91.38 1.27 90.95 1.29L90.95 1.29L90.95 1.29Q90.52 1.32 90.11 1.32L90.11 1.32L90.11 1.32Q87.88 1.32 86.27 0.76L86.27 0.76L86.27 0.76Q84.65 0.21 83.51-0.80L83.51-0.80L83.51-0.80Q82.37-1.81 81.66-3.20L81.66-3.20L81.66-3.20Q80.95-4.58 80.54-6.22L80.54-6.22L80.54-6.22Q80.12-7.87 79.98-9.72L79.98-9.72L79.98-9.72Q79.84-11.57 79.84-13.51L79.84-13.51L79.84-13.51Q79.84-14.85 79.90-16.50L79.90-16.50L79.90-16.50Q79.97-18.14 80.21-19.81L80.21-19.81L80.21-19.81Q80.46-21.48 80.96-23.06L80.96-23.06L80.96-23.06Q81.47-24.64 82.35-25.87L82.35-25.87L82.35-25.87Q83.23-27.10 84.56-27.83L84.56-27.83L84.56-27.83Q85.89-28.57 87.78-28.57L87.78-28.57L87.78-28.57Q88.61-28.57 89.39-28.44L89.39-28.44L89.39-28.44Q90.16-28.31 90.81-28.12L90.81-28.12L90.81-28.12Q91.46-27.92 91.92-27.70L91.92-27.70L91.92-27.70Q92.39-27.48 92.59-27.30L92.59-27.30ZM97.02-34.88L103.65-34.94L103.65-34.94Q103.44-32.84 103.28-30.86L103.28-30.86L103.28-30.86Q103.13-28.88 103.00-26.91L103.00-26.91L103.00-26.91Q103.98-26.97 104.95-27.00L104.95-27.00L104.95-27.00Q105.92-27.04 106.93-27.15L106.93-27.15L106.75-21.89L106.75-21.89Q105.77-21.95 104.74-21.95L104.74-21.95L104.74-21.95Q103.72-21.95 102.74-21.95L102.74-21.95L102.74-21.95Q102.53-18.22 102.44-14.66L102.44-14.66L102.44-14.66Q102.35-11.10 102.35-7.48L102.35-7.48L102.35-7.48Q102.35-5.62 102.39-3.74L102.39-3.74L102.39-3.74Q102.43-1.86 102.48 0.05L102.48 0.05L96.79 0.16L96.79 0.16Q96.97-5.41 97.10-10.86L97.10-10.86L97.10-10.86Q97.23-16.30 97.23-21.84L97.23-21.84L97.23-21.84Q96.24-21.79 95.23-21.75L95.23-21.75L95.23-21.75Q94.23-21.71 93.24-21.63L93.24-21.63L93.45-27.30L93.45-27.30Q94.35-27.17 95.31-27.10L95.31-27.10L95.31-27.10Q96.27-27.02 97.18-26.97L97.18-26.97L97.18-26.97Q97.18-28.98 97.14-30.93L97.14-30.93L97.14-30.93Q97.10-32.87 97.02-34.88L97.02-34.88ZM124.94-17.60L124.94-17.60L124.94-17.60Q124.94-13.59 124.36-10.68L124.36-10.68L124.36-10.68Q123.78-7.76 122.82-5.72L122.82-5.72L122.82-5.72Q121.86-3.67 120.66-2.41L120.66-2.41L120.66-2.41Q119.46-1.14 118.21-0.44L118.21-0.44L118.21-0.44Q116.97 0.26 115.81 0.50L115.81 0.50L115.81 0.50Q114.64 0.75 113.76 0.75L113.76 0.75L108.46 0.31L108.46 0.31Q108.79-4.97 108.98-10.31L108.98-10.31L108.98-10.31Q109.16-15.66 109.16-21.09L109.16-21.09L109.16-21.09Q109.16-25.21 109.05-29.24L109.05-29.24L109.05-29.24Q108.95-33.28 108.74-37.32L108.74-37.32L108.74-37.32Q109.36-37.37 109.96-37.40L109.96-37.40L109.96-37.40Q110.55-37.42 111.12-37.42L111.12-37.42L111.12-37.42Q115.42-37.42 118.11-35.96L118.11-35.96L118.11-35.96Q120.80-34.50 122.32-31.87L122.32-31.87L122.32-31.87Q123.83-29.24 124.39-25.61L124.39-25.61L124.39-25.61Q124.94-21.97 124.94-17.60ZM119.66-18.30L119.66-18.30L119.66-18.30Q119.66-19.56 119.61-21.00L119.61-21.00L119.61-21.00Q119.56-22.44 119.39-23.86L119.39-23.86L119.39-23.86Q119.22-25.28 118.89-26.63L118.89-26.63L118.89-26.63Q118.55-27.98 118.01-29.10L118.01-29.10L118.01-29.10Q117.46-30.23 116.68-31.03L116.68-31.03L116.68-31.03Q115.89-31.83 114.77-32.17L114.77-32.17L114.77-32.17Q114.62-29.32 114.50-26.62L114.50-26.62L114.50-26.62Q114.38-23.91 114.31-21.27L114.31-21.27L114.31-21.27Q114.23-18.63 114.19-16.03L114.19-16.03L114.19-16.03Q114.15-13.43 114.15-10.82L114.15-10.82L114.15-10.82Q114.15-9.11 114.15-7.36L114.15-7.36L114.15-7.36Q114.15-5.62 114.20-3.80L114.20-3.80L114.20-3.80Q115.39-3.93 116.27-4.71L116.27-4.71L116.27-4.71Q117.15-5.49 117.76-6.66L117.76-6.66L117.76-6.66Q118.37-7.84 118.75-9.33L118.75-9.33L118.75-9.33Q119.12-10.82 119.33-12.38L119.33-12.38L119.33-12.38Q119.53-13.95 119.60-15.48L119.60-15.48L119.60-15.48Q119.66-17.00 119.66-18.30ZM142.75-14.83L142.75-14.83L142.75-14.83Q142.75-11.67 142.46-9.29L142.46-9.29L142.46-9.29Q142.18-6.91 141.65-5.16L141.65-5.16L141.65-5.16Q141.12-3.42 140.38-2.26L140.38-2.26L140.38-2.26Q139.64-1.11 138.75-0.41L138.75-0.41L138.75-0.41Q137.86 0.28 136.82 0.57L136.82 0.57L136.82 0.57Q135.79 0.85 134.70 0.85L134.70 0.85L134.70 0.85Q133.61 0.85 132.62 0.62L132.62 0.62L132.62 0.62Q131.62 0.39 130.77-0.23L130.77-0.23L130.77-0.23Q129.91-0.85 129.20-1.92L129.20-1.92L129.20-1.92Q128.49-2.98 128.00-4.63L128.00-4.63L128.00-4.63Q127.51-6.29 127.23-8.59L127.23-8.59L127.23-8.59Q126.96-10.90 126.96-14.00L126.96-14.00L126.96-14.00Q126.96-18.66 127.65-21.63L127.65-21.63L127.65-21.63Q128.33-24.61 129.45-26.33L129.45-26.33L129.45-26.33Q130.56-28.05 131.98-28.71L131.98-28.71L131.98-28.71Q133.41-29.37 134.91-29.37L134.91-29.37L134.91-29.37Q135.86-29.37 136.83-29.18L136.83-29.18L136.83-29.18Q137.81-28.98 138.67-28.42L138.67-28.42L138.67-28.42Q139.54-27.85 140.29-26.84L140.29-26.84L140.29-26.84Q141.04-25.83 141.58-24.21L141.58-24.21L141.58-24.21Q142.13-22.59 142.44-20.29L142.44-20.29L142.44-20.29Q142.75-17.99 142.75-14.83ZM137.18-14.62L137.18-14.62L137.18-14.62Q137.18-17.11 137.00-18.70L137.00-18.70L137.00-18.70Q136.82-20.29 136.51-21.22L136.51-21.22L136.51-21.22Q136.20-22.15 135.76-22.50L135.76-22.50L135.76-22.50Q135.32-22.85 134.80-22.85L134.80-22.85L134.80-22.85Q134.21-22.85 133.77-22.35L133.77-22.35L133.77-22.35Q133.33-21.84 133.03-20.73L133.03-20.73L133.03-20.73Q132.73-19.62 132.58-17.87L132.58-17.87L132.58-17.87Q132.42-16.12 132.42-13.61L132.42-13.61L132.42-13.61Q132.42-11.08 132.62-9.41L132.62-9.41L132.62-9.41Q132.81-7.74 133.16-6.74L133.16-6.74L133.16-6.74Q133.51-5.75 133.99-5.33L133.99-5.33L133.99-5.33Q134.47-4.92 135.01-4.92L135.01-4.92L135.01-4.92Q136.15-4.92 136.67-7.27L136.67-7.27L136.67-7.27Q137.18-9.63 137.18-14.62ZM155.74-25.44L161.56-25.54L161.56-25.54Q161.35-21.38 161.28-17.30L161.28-17.30L161.28-17.30Q161.20-13.22 161.20-9.11L161.20-9.11L161.20-9.11Q161.20-6.68 161.21-4.30L161.21-4.30L161.21-4.30Q161.23-1.92 161.30 0.52L161.30 0.52L156.15 0.65L156.15-2.59L156.15-2.59Q155.38-1.32 154.42-0.65L154.42-0.65L154.42-0.65Q153.46 0.03 152.59 0.32L152.59 0.32L152.59 0.32Q151.73 0.62 151.11 0.66L151.11 0.66L151.11 0.66Q150.49 0.70 150.38 0.70L150.38 0.70L150.38 0.70Q148.75 0.36 147.68-0.74L147.68-0.74L147.68-0.74Q146.60-1.84 145.97-3.48L145.97-3.48L145.97-3.48Q145.34-5.12 145.08-7.19L145.08-7.19L145.08-7.19Q144.82-9.26 144.82-11.54L144.82-11.54L144.82-11.54Q144.82-13.51 144.97-15.55L144.97-15.55L144.97-15.55Q145.13-17.60 145.36-19.58L145.36-19.58L145.36-19.58Q145.59-21.56 145.88-23.41L145.88-23.41L145.88-23.41Q146.16-25.26 146.45-26.86L146.45-26.86L152.09-26.76L152.09-26.76Q151.86-25.23 151.61-23.45L151.61-23.45L151.61-23.45Q151.37-21.66 151.17-19.80L151.17-19.80L151.17-19.80Q150.98-17.93 150.86-16.06L150.86-16.06L150.86-16.06Q150.74-14.18 150.74-12.50L150.74-12.50L150.74-12.50Q150.74-10.95 150.87-9.60L150.87-9.60L150.87-9.60Q151.00-8.26 151.29-7.26L151.29-7.26L151.29-7.26Q151.57-6.26 152.03-5.71L152.03-5.71L152.03-5.71Q152.48-5.15 153.15-5.15L153.15-5.15L153.15-5.15Q154.03-5.15 154.60-6.21L154.60-6.21L154.60-6.21Q155.17-7.27 155.49-8.99L155.49-8.99L155.49-8.99Q155.82-10.71 155.93-12.86L155.93-12.86L155.93-12.86Q156.05-15.01 156.05-17.18L156.05-17.18L156.05-17.18Q156.05-18.81 156.00-20.29L156.00-20.29L156.00-20.29Q155.95-21.76 155.89-22.93L155.89-22.93L155.89-22.93Q155.82-24.27 155.74-25.44L155.74-25.44ZM170.46-0.70L170.46-0.70L170.46-0.70Q169.79-0.67 168.94-0.60L168.94-0.60L168.94-0.60Q168.21-0.54 167.24-0.47L167.24-0.47L167.24-0.47Q166.27-0.39 165.11-0.26L165.11-0.26L165.11-0.26Q164.87-9.03 164.62-15.77L164.62-15.77L164.62-15.77Q164.36-22.51 164.15-27.17L164.15-27.17L164.15-27.17Q163.89-32.61 163.63-36.62L163.63-36.62L170.36-36.93L170.36-36.93Q170.36-31.08 170.36-26.41L170.36-26.41L170.36-26.41Q170.36-21.74 170.37-18.10L170.37-18.10L170.37-18.10Q170.39-14.47 170.40-11.76L170.40-11.76L170.40-11.76Q170.41-9.06 170.41-7.12L170.41-7.12L170.41-7.12Q170.44-2.59 170.46-0.70ZM189.05-16.48L189.05-16.48L189.05-16.48Q189.05-12.40 189.01-8.31L189.01-8.31L189.01-8.31Q188.97-4.22 188.84 0.21L188.84 0.21L184.34-0.05L184.34-3.55L184.34-3.55Q183.56-2.15 182.58-1.41L182.58-1.41L182.58-1.41Q181.59-0.67 180.71-0.31L180.71-0.31L180.71-0.31Q179.68 0.10 178.67 0.16L178.67 0.16L178.67 0.16Q177.43 0.16 176.34-0.40L176.34-0.40L176.34-0.40Q175.25-0.96 174.45-1.89L174.45-1.89L174.45-1.89Q173.65-2.82 173.19-4.02L173.19-4.02L173.19-4.02Q172.74-5.23 172.74-6.52L172.74-6.52L172.74-6.52Q172.74-8.00 173.38-9.43L173.38-9.43L173.38-9.43Q174.01-10.87 175.54-12.03L175.54-12.03L175.54-12.03Q177.58-13.61 179.08-14.67L179.08-14.67L179.08-14.67Q180.58-15.73 181.58-16.60L181.58-16.60L181.58-16.60Q182.58-17.47 183.05-18.26L183.05-18.26L183.05-18.26Q183.53-19.05 183.53-20.08L183.53-20.08L183.53-20.08Q183.53-21.79 182.96-22.63L182.96-22.63L182.96-22.63Q182.39-23.47 181.46-23.47L181.46-23.47L181.46-23.47Q180.89-23.47 180.49-23.17L180.49-23.17L180.49-23.17Q180.09-22.88 179.85-22.40L179.85-22.40L179.85-22.40Q179.60-21.92 179.48-21.34L179.48-21.34L179.48-21.34Q179.37-20.75 179.37-20.19L179.37-20.19L179.37-20.19Q179.37-19.80 179.41-19.33L179.41-19.33L179.41-19.33Q179.44-18.87 179.57-18.35L179.57-18.35L173.62-18.24L173.62-18.24Q173.57-18.68 173.54-19.09L173.54-19.09L173.54-19.09Q173.52-19.49 173.52-19.88L173.52-19.88L173.52-19.88Q173.52-21.48 174.06-23.05L174.06-23.05L174.06-23.05Q174.60-24.61 175.65-25.84L175.65-25.84L175.65-25.84Q176.70-27.07 178.20-27.82L178.20-27.82L178.20-27.82Q179.70-28.57 181.64-28.57L181.64-28.57L181.64-28.57Q184.15-28.57 185.62-27.52L185.62-27.52L185.62-27.52Q187.08-26.47 187.84-24.77L187.84-24.77L187.84-24.77Q188.61-23.06 188.83-20.90L188.83-20.90L188.83-20.90Q189.05-18.74 189.05-16.48ZM183.22-9.16L183.22-9.16L183.22-9.16Q183.35-9.81 183.46-10.64L183.46-10.64L183.46-10.64Q183.56-11.33 183.64-12.33L183.64-12.33L183.64-12.33Q183.71-13.33 183.77-14.57L183.77-14.57L183.77-14.57Q183.35-14.00 182.96-13.56L182.96-13.56L182.96-13.56Q182.58-13.12 182.24-12.78L182.24-12.78L182.24-12.78Q181.85-12.40 181.51-12.09L181.51-12.09L181.51-12.09Q180.92-11.59 180.25-10.99L180.25-10.99L180.25-10.99Q179.57-10.38 179.02-9.70L179.02-9.70L179.02-9.70Q178.46-9.03 178.09-8.32L178.09-8.32L178.09-8.32Q177.71-7.61 177.71-6.94L177.71-6.94L177.71-6.94Q177.71-6.21 178.20-5.60L178.20-5.60L178.20-5.60Q178.69-4.99 179.42-4.99L179.42-4.99L179.42-4.99Q179.96-4.99 180.54-5.31L180.54-5.31L180.54-5.31Q181.13-5.62 181.66-6.19L181.66-6.19L181.66-6.19Q182.19-6.75 182.60-7.50L182.60-7.50L182.60-7.50Q183.02-8.26 183.22-9.16Z" fill="#fbbc42"></path></g></g><style>text {
  font-size: 64px;
  font-family: Arial Black;
  dominant-baseline: central;
  text-anchor: middle;
}</style></svg>